<?xml version="1.0" standalone="no"?>
<!DOCTYPE svg PUBLIC "-//W3C//DTD SVG 20010904//EN"
 "http://www.w3.org/TR/2001/REC-SVG-20010904/DTD/svg10.dtd">
<svg version="1.0" xmlns="http://www.w3.org/2000/svg"
 width="648.000000pt" height="648.000000pt" viewBox="0 0 648.000000 648.000000"
 preserveAspectRatio="xMidYMid meet">
<metadata>
Created by potrace 1.14, written by Peter Selinger 2001-2017
</metadata>
<g transform="translate(0.000000,648.000000) scale(0.100000,-0.100000)"
fill="#000000" stroke="none">
<path d="M3065 6473 c-48 -10 -131 -37 -139 -45 -6 -4 -16 -8 -23 -8 -24 0
-124 -71 -181 -129 -69 -69 -125 -162 -155 -256 -31 -99 -31 -271 1 -367 12
-37 31 -83 41 -101 11 -19 25 -45 33 -58 26 -47 187 -197 276 -258 139 -95
322 -126 502 -87 93 20 234 104 305 183 66 72 129 182 138 238 1 11 7 27 12
35 16 26 16 229 -1 299 -15 65 -63 172 -90 202 -8 8 -14 19 -14 22 0 11 -80
91 -150 149 -163 136 -264 179 -430 183 -58 1 -114 1 -125 -2z"/>
<path d="M1270 5724 c-289 -61 -493 -310 -494 -604 0 -52 4 -111 8 -130 4 -19
9 -39 10 -45 5 -23 40 -111 51 -125 6 -8 17 -28 25 -45 34 -68 231 -242 340
-299 136 -71 294 -90 450 -53 75 18 197 88 264 151 60 56 146 175 146 200 0 6
6 23 14 37 25 49 39 129 39 229 -1 84 -9 130 -39 209 -46 122 -94 184 -229
297 -158 133 -276 184 -435 189 -47 1 -114 -4 -150 -11z"/>
<path d="M4835 5729 c-40 -8 -81 -18 -100 -23 -5 -2 -23 -9 -40 -16 -16 -7
-33 -13 -37 -12 -3 1 -12 -5 -18 -13 -7 -8 -17 -15 -22 -15 -11 0 -68 -42
-116 -85 -87 -78 -162 -218 -187 -350 -6 -33 -7 -171 -2 -195 2 -8 7 -33 12
-55 10 -52 55 -152 93 -207 38 -56 74 -93 137 -143 27 -22 57 -47 66 -56 29
-29 103 -76 159 -101 81 -37 154 -51 255 -51 197 0 361 80 499 244 20 24 96
167 94 178 -1 3 1 13 5 21 35 93 32 269 -7 378 -23 67 -67 150 -99 188 -25 31
-122 124 -128 124 -4 0 -22 14 -40 32 -103 96 -255 158 -399 163 -47 1 -103
-2 -125 -6z"/>
<path d="M3014 4394 c-44 -6 -90 -15 -102 -18 -12 -4 -32 -9 -46 -12 -77 -14
-297 -124 -375 -188 -133 -109 -238 -236 -311 -376 -24 -47 -43 -85 -41 -85 1
0 -5 -16 -13 -36 -8 -20 -18 -50 -21 -67 -3 -17 -10 -43 -15 -58 -6 -15 -13
-48 -16 -73 -3 -25 -7 -57 -10 -71 -7 -34 -5 -193 2 -238 4 -20 7 -44 8 -52
11 -88 64 -247 114 -339 75 -141 176 -258 327 -382 214 -176 362 -246 605
-287 39 -6 258 -6 305 1 105 15 240 58 340 109 44 22 82 44 83 49 2 5 8 9 13
9 19 0 121 82 193 154 162 165 265 366 310 606 14 75 15 313 1 375 -21 100
-29 127 -51 193 -62 179 -182 356 -326 477 -57 49 -107 85 -116 85 -6 0 -12 4
-14 9 -8 23 -320 172 -388 186 -8 2 -33 8 -55 13 -107 28 -274 35 -401 16z"/>
<path d="M568 3939 c-292 -45 -513 -295 -524 -589 -8 -217 71 -388 241 -525
27 -22 59 -48 70 -59 50 -47 184 -118 245 -131 8 -2 15 -4 15 -5 0 -4 56 -10
130 -14 273 -14 532 167 619 435 33 103 37 213 11 342 -6 29 -65 168 -75 177
-3 3 -17 21 -30 40 -27 39 -116 130 -128 130 -4 0 -23 15 -42 33 -141 132
-343 195 -532 166z"/>
<path d="M5522 3929 c-217 -54 -376 -200 -450 -412 -21 -60 -26 -91 -26 -187
0 -63 3 -126 6 -140 38 -154 118 -278 235 -367 21 -15 44 -35 53 -43 139 -136
379 -198 575 -149 66 16 169 63 197 89 12 11 26 20 31 20 16 0 117 111 155
170 31 48 63 125 78 185 28 109 9 316 -35 390 -3 6 -6 15 -7 21 -2 13 -50 87
-79 123 -31 38 -95 103 -95 97 0 -3 -8 2 -18 12 -185 177 -404 245 -620 191z"/>
<path d="M1328 2155 c-2 -2 -16 -5 -33 -8 -153 -24 -336 -139 -407 -255 -12
-21 -25 -39 -28 -42 -13 -11 -49 -100 -66 -161 -16 -62 -27 -243 -15 -264 3
-5 7 -19 8 -30 16 -109 107 -259 205 -340 71 -58 90 -74 119 -98 43 -37 150
-94 188 -102 12 -2 25 -6 30 -10 20 -12 100 -20 191 -19 168 2 305 64 431 194
63 65 132 180 144 238 2 12 6 25 8 30 10 15 20 89 20 147 1 149 -37 269 -121
385 -37 51 -98 108 -204 191 -23 19 -44 37 -46 41 -2 5 -8 8 -13 8 -5 0 -27
11 -49 25 -22 14 -40 23 -40 20 0 -3 -13 1 -30 10 -16 9 -30 13 -30 9 0 -4 -7
-1 -15 6 -8 7 -15 9 -15 6 0 -4 -9 -2 -20 4 -17 9 -205 22 -212 15z"/>
<path d="M4792 2138 c-70 -17 -191 -70 -227 -99 -73 -59 -145 -145 -183 -217
-24 -45 -40 -82 -36 -82 3 0 2 -6 -4 -12 -25 -31 -42 -221 -27 -298 3 -14 8
-38 11 -55 3 -16 10 -35 16 -42 6 -7 7 -13 3 -13 -4 0 -3 -6 3 -12 6 -7 10
-16 11 -21 1 -21 66 -127 104 -169 56 -62 220 -193 281 -225 128 -65 286 -86
426 -56 41 9 77 20 78 25 2 4 11 8 19 8 20 0 120 57 157 89 73 64 156 165 156
190 0 6 5 11 10 11 6 0 10 6 10 13 0 8 7 28 15 45 9 17 22 66 31 109 45 236
-40 468 -226 613 -24 19 -54 44 -66 55 -12 11 -31 27 -44 35 -12 8 -32 22 -44
31 -33 24 -128 66 -171 75 -66 14 -87 16 -156 18 -45 1 -105 -5 -147 -16z"/>
<path d="M3084 1411 c-2 -3 -12 -6 -22 -7 -69 -7 -208 -62 -249 -98 -7 -6 -30
-24 -51 -41 -82 -63 -162 -186 -199 -305 -26 -85 -24 -265 4 -355 40 -126 114
-229 233 -325 30 -25 66 -55 80 -68 40 -36 154 -91 228 -111 70 -18 230 -22
297 -7 53 13 159 58 205 89 69 46 193 177 190 201 -1 5 2 12 7 15 17 11 53
101 69 169 39 167 2 356 -97 497 -42 61 -85 103 -185 182 -122 97 -184 128
-324 159 -31 7 -180 11 -186 5z"/>
</g>
</svg>
