<svg xmlns="http://www.w3.org/2000/svg" width="116" height="130" viewBox="0 0 116 130"><g><g><g><path fill="#6236FF" d="M32 22V0h84v22z"/></g><g><path fill="#6236FF" d="M32 74V52h84v22z"/></g><g><path fill="#6236FF" d="M32 130v-26h52v26z"/></g><g><path fill="#6236FF" d="M0 30v-4h84v4z"/></g><g><path fill="#6236FF" d="M0 39v-4h84v4z"/></g><g><path fill="#6236FF" d="M0 48v-4h84v4z"/></g><g><path fill="#6236FF" d="M0 44h84z"/></g><g><path fill="#6236FF" d="M0 56v-4h28v4z"/></g><g><path fill="#6236FF" d="M0 65v-4h28v4z"/></g><g><path fill="#6236FF" d="M0 74v-4h28v4z"/></g><g><path fill="#6236FF" d="M0 82v-4h84v4z"/></g><g><path fill="#6236FF" d="M0 91v-4h84v4z"/></g><g><path fill="#6236FF" d="M0 100v-4h84v4z"/></g></g></g></svg>
