<svg xmlns="http://www.w3.org/2000/svg" xmlns:xlink="http://www.w3.org/1999/xlink" width="24" height="24" viewBox="0 0 24 24"><defs><linearGradient id="a" x1="0.5" x2="0.5" y2="1" gradientUnits="objectBoundingBox"><stop offset="0" stop-color="#4f68fc"/><stop offset="1" stop-color="#2134ab"/></linearGradient></defs><path d="M12061.595,5574.62A2.406,2.406,0,1,1,12064,5577,2.394,2.394,0,0,1,12061.595,5574.62Zm6.785-2.817a2.405,2.405,0,1,1,2.405,2.38A2.393,2.393,0,0,1,12068.38,5571.8Zm-13.569,0a2.406,2.406,0,1,1,2.405,2.38A2.394,2.394,0,0,1,12054.811,5571.8Zm4.938-6.76a4.264,4.264,0,1,1,4.264,4.275A4.269,4.269,0,0,1,12059.748,5565.042Zm11.442-.042a2.405,2.405,0,1,1,2.406,2.379A2.394,2.394,0,0,1,12071.19,5565Zm-19.189,0a2.406,2.406,0,1,1,2.405,2.379A2.393,2.393,0,0,1,12052,5565Zm16.379-6.8a2.405,2.405,0,1,1,2.406,2.379A2.394,2.394,0,0,1,12068.38,5558.2Zm-13.569,0a2.406,2.406,0,1,1,2.405,2.379A2.394,2.394,0,0,1,12054.811,5558.2Zm6.784-2.817a2.406,2.406,0,1,1,2.406,2.38A2.394,2.394,0,0,1,12061.595,5555.381Z" transform="translate(-12052.001 -5553)" fill="url(#a)"/></svg>