<svg xmlns="http://www.w3.org/2000/svg" width="32" height="32" viewBox="0 0 32 32"><path d="M0,0H32V32H0Z" fill="none"/><path d="M7.333,24.667h-4A1.333,1.333,0,0,1,2,23.333V10A1.333,1.333,0,0,1,3.333,8.667h4V3.333A1.333,1.333,0,0,1,8.667,2H22a1.333,1.333,0,0,1,1.333,1.333V8.667h4A1.333,1.333,0,0,1,28.667,10V23.333a1.333,1.333,0,0,1-1.333,1.333h-4v2.667A1.333,1.333,0,0,1,22,28.667H8.667a1.333,1.333,0,0,1-1.333-1.333Zm0-2.667V20.667a1.333,1.333,0,0,1,1.333-1.333H22a1.333,1.333,0,0,1,1.333,1.333V22H26V11.333H4.667V22ZM10,4.667v4H20.667v-4ZM10,22v4H20.667V22ZM6,12.667h4v2.667H6Z" transform="translate(0.667 0.667)" fill="#ffdb4d"/></svg>