<svg xmlns="http://www.w3.org/2000/svg" width="88" height="48" viewBox="0 0 88 48"><g transform="translate(-80 -38)"><rect width="88" height="48" transform="translate(80 38)" fill="#fff" opacity="0"/><g transform="translate(80 38)"><path d="M372.123,97.927h5.825v5.281h-5.825v7.278a7.075,7.075,0,0,0,.077,1.133,1.453,1.453,0,0,0,.413.833,2.242,2.242,0,0,0,1.058.509,9.264,9.264,0,0,0,2,.17,17.553,17.553,0,0,0,1.815-.1,9.108,9.108,0,0,0,1.7-.32v5.513a12.2,12.2,0,0,1-1.742.281c-.653.062-1.336.1-2.039.1a16.538,16.538,0,0,1-4.349-.493,7.426,7.426,0,0,1-2.874-1.415c-.734-.617-2.121-1.831-2.121-5.455V92.46h6.053Z" transform="translate(-341.983 -90.367)" fill="#fff"/><path d="M313.834,106.8a10.1,10.1,0,1,0,10.124,10.1,10.114,10.114,0,0,0-10.124-10.1m0,14.9a4.8,4.8,0,1,1,4.813-4.8,4.808,4.808,0,0,1-4.813,4.8" transform="translate(-303.71 -99.178)" fill="#fff"/><path d="M505.493,115.792v11.315h-6.049v-9.723a5.016,5.016,0,0,0-4.739-5.042h-.251a5.952,5.952,0,0,0-3.681,1.268v13.512h-6.1V106.96h6.1v.875a13.316,13.316,0,0,1,8.679-.281l.07.023a8.618,8.618,0,0,1,5.979,8.231" transform="translate(-417.493 -99.391)" fill="#fff"/><g transform="translate(38.637)"><g opacity="0.7"><path d="M429.007,150.963a1.728,1.728,0,1,1,.175-1.312,1.731,1.731,0,0,1-.175,1.312" transform="translate(-425.776 -120.564)" fill="#fff"/><path d="M451.37,112.249a1.727,1.727,0,1,1,.177-1.315,1.731,1.731,0,0,1-.177,1.315" transform="translate(-424.583 -105.346)" fill="#fff"/><path d="M418.471,121.07a1.732,1.732,0,1,1,1.315.173,1.732,1.732,0,0,1-1.315-.173" transform="translate(-417.595 -113.527)" fill="#fff"/><path d="M457.191,143.421a1.732,1.732,0,1,1,2.367-.636,1.733,1.733,0,0,1-2.367.636" transform="translate(-432.771 -112.385)" fill="#fff"/><path d="M426.023,112.252a1.732,1.732,0,1,1,2.362.635,1.732,1.732,0,0,1-2.362-.635" transform="translate(-418.313 -109.645)" fill="#fff"/><path d="M448.375,150.964a1.727,1.727,0,1,1,1.051.81,1.731,1.731,0,0,1-1.051-.81" transform="translate(-432.053 -116.265)" fill="#fff"/><path d="M437,108.376a1.732,1.732,0,1,1,1.732,1.727A1.732,1.732,0,0,1,437,108.376" transform="translate(-420.876 -106.64)" fill="#fff"/><path d="M437,153.077a1.732,1.732,0,1,1,1.732,1.728A1.732,1.732,0,0,1,437,153.077" transform="translate(-429.5 -119.245)" fill="#fff"/></g><g transform="translate(1.069 5.254)"><g transform="translate(0 0)"><circle cx="2.495" cy="2.495" r="2.495" transform="translate(9.951)" fill="#fff"/><circle cx="2.495" cy="2.495" r="2.495" transform="translate(19.903 9.924)" fill="#fff"/><circle cx="2.495" cy="2.495" r="2.495" transform="translate(9.951 19.849)" fill="#fff"/><circle cx="2.495" cy="2.495" r="2.495" transform="translate(0 9.924)" fill="#fff"/><circle cx="2.495" cy="2.495" r="2.495" transform="translate(16.988 2.907)" fill="#fff"/><circle cx="2.495" cy="2.495" r="2.495" transform="translate(16.988 16.942)" fill="#fff"/><circle cx="2.495" cy="2.495" r="2.495" transform="translate(2.915 16.942)" fill="#fff"/><circle cx="2.495" cy="2.495" r="2.495" transform="translate(2.915 2.907)" fill="#fff"/></g><ellipse cx="4.423" cy="4.411" rx="4.423" ry="4.411" transform="translate(8.035 8.013)" fill="#fff"/></g></g></g><path d="M4.872-8.184A4.294,4.294,0,0,0,1.74-7.008,4.469,4.469,0,0,0,.5-3.972,4.087,4.087,0,0,0,1.752-1,4.4,4.4,0,0,0,4.872.18,4.274,4.274,0,0,0,7.968-1,4.138,4.138,0,0,0,9.216-4,4.164,4.164,0,0,0,7.968-7.02,4.277,4.277,0,0,0,4.872-8.184ZM4.86-6.48A2.567,2.567,0,0,1,6.624-5.8,2.523,2.523,0,0,1,7.32-4a2.4,2.4,0,0,1-.7,1.788,2.423,2.423,0,0,1-1.776.684,2.354,2.354,0,0,1-1.716-.66,2.388,2.388,0,0,1-.732-1.8A2.452,2.452,0,0,1,3.108-5.8,2.456,2.456,0,0,1,4.86-6.48ZM15.8-8h-4.44V0h1.848V-3.336h2.4V-4.9h-2.4V-6.444H15.8Zm6.564,0h-4.44V0h1.848V-3.336h2.4V-4.9h-2.4V-6.444h2.592Zm2.16,0V0h1.848V-8ZM34.716-2.376a2.524,2.524,0,0,1-1.836.828,2.429,2.429,0,0,1-1.728-.672,2.408,2.408,0,0,1-.7-1.764,2.564,2.564,0,0,1,.756-1.848,2.245,2.245,0,0,1,1.632-.624,2.536,2.536,0,0,1,1.872.852V-7.74a4.765,4.765,0,0,0-1.92-.444,4.249,4.249,0,0,0-2.988,1.152A4.175,4.175,0,0,0,28.56-4.02,4.19,4.19,0,0,0,29.808-.984,4.287,4.287,0,0,0,32.952.18a3.719,3.719,0,0,0,1.764-.432ZM41.484-8H36.96V0h4.524V-1.56H38.808V-3.336h2.544V-4.9H38.808V-6.444h2.676ZM52.848-1.56h-2.76l.84-.8a10.311,10.311,0,0,0,1.284-1.38,2.849,2.849,0,0,0,.6-1.764,2.677,2.677,0,0,0-.744-1.92,2.85,2.85,0,0,0-2.076-.756,2.9,2.9,0,0,0-2.208.828,3.436,3.436,0,0,0-.828,2H48.8a1.626,1.626,0,0,1,.336-.984.942.942,0,0,1,.732-.288A1.089,1.089,0,0,1,50.6-6.4a1.125,1.125,0,0,1,.312.792,2.7,2.7,0,0,1-.48,1.356,18.505,18.505,0,0,1-1.308,1.632L46.728,0h6.12Zm2.136.66A1.081,1.081,0,0,0,56.076.192,1.081,1.081,0,0,0,57.168-.9a1.081,1.081,0,0,0-1.092-1.092A1.081,1.081,0,0,0,54.984-.9ZM65.4-4a4.628,4.628,0,0,0-1.152-3.36A2.977,2.977,0,0,0,62.1-8.184a2.931,2.931,0,0,0-2.124.828A4.628,4.628,0,0,0,58.824-4,4.637,4.637,0,0,0,59.976-.648,2.931,2.931,0,0,0,62.1.18a2.977,2.977,0,0,0,2.148-.828A4.637,4.637,0,0,0,65.4-4ZM62.112-6.6a1,1,0,0,1,.744.3,3.486,3.486,0,0,1,.672,2.292,3.522,3.522,0,0,1-.672,2.3,1,1,0,0,1-.744.3,1,1,0,0,1-.744-.3,3.522,3.522,0,0,1-.672-2.3A3.486,3.486,0,0,1,61.368-6.3,1,1,0,0,1,62.112-6.6Z" transform="translate(79.496 85.184)" fill="#fff"/></g></svg>
