<svg xmlns="http://www.w3.org/2000/svg" width="148" height="148" viewBox="0 0 148 148"><path d="M12111.164,5686.32A14.837,14.837,0,1,1,12126,5701,14.764,14.764,0,0,1,12111.164,5686.32Zm41.836-17.375a14.833,14.833,0,1,1,14.836,14.68A14.764,14.764,0,0,1,12153,5668.945Zm-83.672,0a14.833,14.833,0,1,1,14.828,14.68A14.762,14.762,0,0,1,12069.328,5668.945Zm30.445-41.687a26.293,26.293,0,1,1,26.289,26.363A26.324,26.324,0,0,1,12099.773,5627.258Zm70.563-.254a14.833,14.833,0,1,1,14.836,14.672A14.759,14.759,0,0,1,12170.336,5627ZM12052,5627a14.837,14.837,0,1,1,14.828,14.672A14.758,14.758,0,0,1,12052,5627Zm101-41.949a14.833,14.833,0,1,1,14.844,14.672A14.769,14.769,0,0,1,12153,5585.055Zm-83.672,0a14.833,14.833,0,1,1,14.828,14.672A14.765,14.765,0,0,1,12069.328,5585.055Zm41.836-17.375a14.837,14.837,0,1,1,14.836,14.68A14.761,14.761,0,0,1,12111.164,5567.68Z" transform="translate(-12052 -5553)" fill="#f2f3f7"/></svg>